@startuml

class users{
    user_id(用户id)
    name(姓名)
    github_username(GitHub账号)
    updata_data(用户GitHub账号修改日期)
    password(用户密码)
    disable(用户是否禁用)
}

class students{
   student_id(学号)
   class(班级)
   web_sum(网站正确与否汇总)
}

class teachers{
    teacher_id(老师工号)
    department(所属部门)
    password(密码)

}

class course{
    course_id(课程编号)
    courseName(课程名称)

}

class grades{
      grade_id(评价id)
      teacher_id(教师编号)
      test_id(实验编号)

}
class term{
      term_id(学期id)
      student_id(学号)
      course_id(课程编号)
      term_name(学期)

}
class evaluate{
      evaluate_id(评价编号)
      evaluateList(评价集)
}
class tests{
      test_id(实验编号)
      evaluate_id(评价编号)
      title(实验名称)
}

students "1"-right-"*" term
term "1"-down-"*" course
/'course "1"-down-"*" grades'/
teachers "1"-right-"*" grades
grades "*"-down-"1" tests
tests "1"-left-"*" evaluate
users <|-down- students
users <|-down- teachers
@enduml